<svg height="2478" width="720" xmlns="http://www.w3.org/2000/svg">
<rect height="2478" fill="#555" width="720"></rect>
<text fill="#7f7" font-family="Courier New" font-size="12" xml:space="preserve">
<tspan x="10" y="26">13 megabytes installed</tspan>
<tspan x="10" y="42"></tspan>
<tspan x="10" y="58">node_modules</tspan>
<tspan x="10" y="74">├─┬ express@4.15.2 </tspan>
<tspan x="10" y="90">│ ├── accepts@1.3.3 </tspan>
<tspan x="10" y="106">│ ├── array-flatten@1.1.1 </tspan>
<tspan x="10" y="122">│ ├── content-disposition@0.5.2 </tspan>
<tspan x="10" y="138">│ ├── content-type@1.0.2 </tspan>
<tspan x="10" y="154">│ ├── cookie@0.3.1 </tspan>
<tspan x="10" y="170">│ ├── cookie-signature@1.0.6 </tspan>
<tspan x="10" y="186">│ ├─┬ debug@2.6.1 </tspan>
<tspan x="10" y="202">│ │ └── ms@0.7.2 </tspan>
<tspan x="10" y="218">│ ├── depd@1.1.0 </tspan>
<tspan x="10" y="234">│ ├── encodeurl@1.0.1 </tspan>
<tspan x="10" y="250">│ ├── escape-html@1.0.3 </tspan>
<tspan x="10" y="266">│ ├── etag@1.8.0 </tspan>
<tspan x="10" y="282">│ ├─┬ finalhandler@1.0.1 </tspan>
<tspan x="10" y="298">│ │ ├── debug@2.6.3 </tspan>
<tspan x="10" y="314">│ │ └── unpipe@1.0.0 </tspan>
<tspan x="10" y="330">│ ├── fresh@0.5.0 </tspan>
<tspan x="10" y="346">│ ├── merge-descriptors@1.0.1 </tspan>
<tspan x="10" y="362">│ ├── methods@1.1.2 </tspan>
<tspan x="10" y="378">│ ├─┬ on-finished@2.3.0 </tspan>
<tspan x="10" y="394">│ │ └── ee-first@1.1.1 </tspan>
<tspan x="10" y="410">│ ├── parseurl@1.3.1 </tspan>
<tspan x="10" y="426">│ ├── path-to-regexp@0.1.7 </tspan>
<tspan x="10" y="442">│ ├─┬ proxy-addr@1.1.4 </tspan>
<tspan x="10" y="458">│ │ ├── forwarded@0.1.0 </tspan>
<tspan x="10" y="474">│ │ └── ipaddr.js@1.3.0 </tspan>
<tspan x="10" y="490">│ ├── qs@6.4.0 </tspan>
<tspan x="10" y="506">│ ├── range-parser@1.2.0 </tspan>
<tspan x="10" y="522">│ ├─┬ send@0.15.1 </tspan>
<tspan x="10" y="538">│ │ ├── destroy@1.0.4 </tspan>
<tspan x="10" y="554">│ │ └── http-errors@1.6.1 </tspan>
<tspan x="10" y="570">│ ├── serve-static@1.12.1 </tspan>
<tspan x="10" y="586">│ ├── setprototypeof@1.0.3 </tspan>
<tspan x="10" y="602">│ ├── statuses@1.3.1 </tspan>
<tspan x="10" y="618">│ ├─┬ type-is@1.6.15 </tspan>
<tspan x="10" y="634">│ │ └── media-typer@0.3.0 </tspan>
<tspan x="10" y="650">│ ├── utils-merge@1.0.0 </tspan>
<tspan x="10" y="666">│ └── vary@1.1.1 </tspan>
<tspan x="10" y="682">├── lru-cache@2.7.3 </tspan>
<tspan x="10" y="698">├─┬ registry-static@0.1.11 </tspan>
<tspan x="10" y="714">│ ├── async@0.8.0 </tspan>
<tspan x="10" y="730">│ ├─┬ davargs@0.0.2 </tspan>
<tspan x="10" y="746">│ │ └─┬ nopt@2.1.2 </tspan>
<tspan x="10" y="762">│ │   └── abbrev@1.1.0 </tspan>
<tspan x="10" y="778">│ ├─┬ davlog@0.0.2 </tspan>
<tspan x="10" y="794">│ │ └── ansi-color@0.2.1 </tspan>
<tspan x="10" y="810">│ ├─┬ event-stream@3.3.4 </tspan>
<tspan x="10" y="826">│ │ ├── duplexer@0.1.1 </tspan>
<tspan x="10" y="842">│ │ ├── from@0.1.7 </tspan>
<tspan x="10" y="858">│ │ ├── map-stream@0.1.0 </tspan>
<tspan x="10" y="874">│ │ ├── pause-stream@0.0.11 </tspan>
<tspan x="10" y="890">│ │ ├── split@0.3.3 </tspan>
<tspan x="10" y="906">│ │ └── stream-combiner@0.0.4 </tspan>
<tspan x="10" y="922">│ ├─┬ follow-registry@0.0.4 </tspan>
<tspan x="10" y="938">│ │ └─┬ follow@0.11.4 </tspan>
<tspan x="10" y="954">│ │   ├── browser-request@0.3.3 </tspan>
<tspan x="10" y="970">│ │   └── debug@0.7.4 </tspan>
<tspan x="10" y="986">│ ├── graceful-fs@2.0.3 </tspan>
<tspan x="10" y="1002">│ ├── http-https@1.0.0 </tspan>
<tspan x="10" y="1018">│ ├─┬ JSONStream@0.7.4 </tspan>
<tspan x="10" y="1034">│ │ ├── jsonparse@0.0.5 </tspan>
<tspan x="10" y="1050">│ │ └── through@2.3.8 </tspan>
<tspan x="10" y="1066">│ ├─┬ mkdirp@0.4.2 </tspan>
<tspan x="10" y="1082">│ │ └── minimist@0.0.8 </tspan>
<tspan x="10" y="1098">│ ├── patch-package-json@0.0.4 </tspan>
<tspan x="10" y="1114">│ ├── prettysize@0.0.3 </tspan>
<tspan x="10" y="1130">│ ├─┬ request@2.81.0 </tspan>
<tspan x="10" y="1146">│ │ ├── aws-sign2@0.6.0 </tspan>
<tspan x="10" y="1162">│ │ ├── aws4@1.6.0 </tspan>
<tspan x="10" y="1178">│ │ ├── caseless@0.12.0 </tspan>
<tspan x="10" y="1194">│ │ ├─┬ combined-stream@1.0.5 </tspan>
<tspan x="10" y="1210">│ │ │ └── delayed-stream@1.0.0 </tspan>
<tspan x="10" y="1226">│ │ ├── extend@3.0.0 </tspan>
<tspan x="10" y="1242">│ │ ├── forever-agent@0.6.1 </tspan>
<tspan x="10" y="1258">│ │ ├─┬ form-data@2.1.4 </tspan>
<tspan x="10" y="1274">│ │ │ └── asynckit@0.4.0 </tspan>
<tspan x="10" y="1290">│ │ ├─┬ har-validator@4.2.1 </tspan>
<tspan x="10" y="1306">│ │ │ ├─┬ ajv@4.11.7 </tspan>
<tspan x="10" y="1322">│ │ │ │ ├── co@4.6.0 </tspan>
<tspan x="10" y="1338">│ │ │ │ └─┬ json-stable-stringify@1.0.1 </tspan>
<tspan x="10" y="1354">│ │ │ │   └── jsonify@0.0.0 </tspan>
<tspan x="10" y="1370">│ │ │ └── har-schema@1.0.5 </tspan>
<tspan x="10" y="1386">│ │ ├─┬ hawk@3.1.3 </tspan>
<tspan x="10" y="1402">│ │ │ ├── boom@2.10.1 </tspan>
<tspan x="10" y="1418">│ │ │ ├── cryptiles@2.0.5 </tspan>
<tspan x="10" y="1434">│ │ │ ├── hoek@2.16.3 </tspan>
<tspan x="10" y="1450">│ │ │ └── sntp@1.0.9 </tspan>
<tspan x="10" y="1466">│ │ ├─┬ http-signature@1.1.1 </tspan>
<tspan x="10" y="1482">│ │ │ ├── assert-plus@0.2.0 </tspan>
<tspan x="10" y="1498">│ │ │ ├─┬ jsprim@1.4.0 </tspan>
<tspan x="10" y="1514">│ │ │ │ ├── assert-plus@1.0.0 </tspan>
<tspan x="10" y="1530">│ │ │ │ ├── extsprintf@1.0.2 </tspan>
<tspan x="10" y="1546">│ │ │ │ ├── json-schema@0.2.3 </tspan>
<tspan x="10" y="1562">│ │ │ │ └── verror@1.3.6 </tspan>
<tspan x="10" y="1578">│ │ │ └─┬ sshpk@1.13.0 </tspan>
<tspan x="10" y="1594">│ │ │   ├── asn1@0.2.3 </tspan>
<tspan x="10" y="1610">│ │ │   ├── assert-plus@1.0.0 </tspan>
<tspan x="10" y="1626">│ │ │   ├── bcrypt-pbkdf@1.0.1 </tspan>
<tspan x="10" y="1642">│ │ │   ├─┬ dashdash@1.14.1 </tspan>
<tspan x="10" y="1658">│ │ │   │ └── assert-plus@1.0.0 </tspan>
<tspan x="10" y="1674">│ │ │   ├── ecc-jsbn@0.1.1 </tspan>
<tspan x="10" y="1690">│ │ │   ├─┬ getpass@0.1.6 </tspan>
<tspan x="10" y="1706">│ │ │   │ └── assert-plus@1.0.0 </tspan>
<tspan x="10" y="1722">│ │ │   ├── jodid25519@1.0.2 </tspan>
<tspan x="10" y="1738">│ │ │   ├── jsbn@0.1.1 </tspan>
<tspan x="10" y="1754">│ │ │   └── tweetnacl@0.14.5 </tspan>
<tspan x="10" y="1770">│ │ ├── is-typedarray@1.0.0 </tspan>
<tspan x="10" y="1786">│ │ ├── isstream@0.1.2 </tspan>
<tspan x="10" y="1802">│ │ ├── json-stringify-safe@5.0.1 </tspan>
<tspan x="10" y="1818">│ │ ├─┬ mime-types@2.1.15 </tspan>
<tspan x="10" y="1834">│ │ │ └── mime-db@1.27.0 </tspan>
<tspan x="10" y="1850">│ │ ├── oauth-sign@0.8.2 </tspan>
<tspan x="10" y="1866">│ │ ├── performance-now@0.2.0 </tspan>
<tspan x="10" y="1882">│ │ ├── safe-buffer@5.0.1 </tspan>
<tspan x="10" y="1898">│ │ ├── stringstream@0.0.5 </tspan>
<tspan x="10" y="1914">│ │ ├─┬ tough-cookie@2.3.2 </tspan>
<tspan x="10" y="1930">│ │ │ └── punycode@1.4.1 </tspan>
<tspan x="10" y="1946">│ │ ├── tunnel-agent@0.6.0 </tspan>
<tspan x="10" y="1962">│ │ └── uuid@3.0.1 </tspan>
<tspan x="10" y="1978">│ ├─┬ rimraf@2.6.1 </tspan>
<tspan x="10" y="1994">│ │ └─┬ glob@7.1.1 </tspan>
<tspan x="10" y="2010">│ │   ├── fs.realpath@1.0.0 </tspan>
<tspan x="10" y="2026">│ │   ├─┬ inflight@1.0.6 </tspan>
<tspan x="10" y="2042">│ │   │ └── wrappy@1.0.2 </tspan>
<tspan x="10" y="2058">│ │   ├── inherits@2.0.3 </tspan>
<tspan x="10" y="2074">│ │   ├─┬ minimatch@3.0.3 </tspan>
<tspan x="10" y="2090">│ │   │ └─┬ brace-expansion@1.1.7 </tspan>
<tspan x="10" y="2106">│ │   │   ├── balanced-match@0.4.2 </tspan>
<tspan x="10" y="2122">│ │   │   └── concat-map@0.0.1 </tspan>
<tspan x="10" y="2138">│ │   ├── once@1.4.0 </tspan>
<tspan x="10" y="2154">│ │   └── path-is-absolute@1.0.1 </tspan>
<tspan x="10" y="2170">│ ├─┬ strip-ansi@0.2.2 </tspan>
<tspan x="10" y="2186">│ │ └── ansi-regex@0.1.0 </tspan>
<tspan x="10" y="2202">│ └── timethat@0.0.3 </tspan>
<tspan x="10" y="2218">└─┬ st@1.2.0 </tspan>
<tspan x="10" y="2234">  ├─┬ async-cache@1.1.0 </tspan>
<tspan x="10" y="2250">  │ └─┬ lru-cache@4.0.2 </tspan>
<tspan x="10" y="2266">  │   ├── pseudomap@1.0.2 </tspan>
<tspan x="10" y="2282">  │   └── yallist@2.1.2 </tspan>
<tspan x="10" y="2298">  ├─┬ bl@1.1.2 </tspan>
<tspan x="10" y="2314">  │ └─┬ readable-stream@2.0.6 </tspan>
<tspan x="10" y="2330">  │   ├── core-util-is@1.0.2 </tspan>
<tspan x="10" y="2346">  │   ├── isarray@1.0.0 </tspan>
<tspan x="10" y="2362">  │   ├── process-nextick-args@1.0.7 </tspan>
<tspan x="10" y="2378">  │   ├── string_decoder@0.10.31 </tspan>
<tspan x="10" y="2394">  │   └── util-deprecate@1.0.2 </tspan>
<tspan x="10" y="2410">  ├── fd@0.0.2 </tspan>
<tspan x="10" y="2426">  ├── graceful-fs@4.1.11 </tspan>
<tspan x="10" y="2442">  ├── mime@1.3.4 </tspan>
<tspan x="10" y="2458">  └── negotiator@0.6.1</tspan>
</text>
</svg>
